{"title":"The Mooring 2012 DVDrip Xvid Ac3-MiLLENiUM","uid":8751623,"size":1461338315,"categoryP":"video","categoryS":"movies","magnet":"?xt=urn:btih:d40a5bafb386452188590d04a5ea690d44621adc&amp;dn=The+Mooring+2012+DVDrip+Xvid+Ac3-MiLLENiUM&amp;tr=udp%3A%2F%2Ftracker.openbittorrent.com%3A80&amp;tr=udp%3A%2F%2Fopen.demonii.com%3A1337&amp;tr=udp%3A%2F%2Ftracker.coppersurfer.tk%3A6969&amp;tr=udp%3A%2F%2Fexodus.desync.com%3A6969","seeders":1,"leechers":0,"uploader":"R0thschild","files":4,"time":1375045747,"description":"              ***********************************************\n\n                PublicHash - Largest Bittorrent Community\n      \n                         &lt;a href=&quot; http://publichash.com/&quot; rel=&quot;nofollow&quot; target=&quot;_NEW&quot;&gt; http://publichash.com/&lt;/a&gt;\n\n          Crystal Clean files - Fast Speed! No Virus! No Fake! Enjoy!\n    \n              ***********************************************\n\nThe Mooring (2012)\n90 min  -  Horror | Thriller  -  19 February 2013 (USA)\nIMDB Rating: 4.3\n\nEvery 40 seconds a person goes missing. In northern Idaho, a group of teenage girls attended a summer camp. They were told it would be a summer of change. It was.\n\nDirector : Glenn Withrow\nWriters : Ivy Withrow, Hallie Todd\n\nScreens: &lt;a href=&quot;\nhttp://imgsure.com/?p=785925&quot; rel=&quot;nofollow&quot; target=&quot;_NEW&quot;&gt;\nhttp://imgsure.com/?p=785925&lt;/a&gt; &lt;a href=&quot;\nhttp://imgsure.com/?p=785330&quot; rel=&quot;nofollow&quot; target=&quot;_NEW&quot;&gt;\nhttp://imgsure.com/?p=785330&lt;/a&gt;\n\nGeneral\n\nComplete name                            : The Mooring DVDrip Xvid Ac3-MiLLENiUM.avi\nsource                                   : DVDR [thanks]\nFormat                                   : AVI\nFormat/Info                              : Audio Video Interleave\nFile size                                : 1.35 GiB\nDuration                                 : 1h 29mn\nOverall bit rate                         : 2 153 Kbps\nWriting application                      : VirtualDubMod 1.5.10.2 (build 2540/release)\nWriting library                          : VirtualDubMod build 2540/release\n\nVideo\nID                                       : 0\nFormat                                   : MPEG-4 Visual\nFormat profile                           : Advanced Simple@L5\nFormat settings, BVOP                    : 2\nFormat settings, QPel                    : No\nFormat settings, GMC                     : No warppoints\nFormat settings, Matrix                  : Default (H.263)\nMuxing mode                              : Packed bitstream\nCodec ID                                 : XVID\nCodec ID/Hint                            : XviD\nDuration                                 : 1h 29mn\nBit rate                                 : 1 695 Kbps\nWidth                                    : 720 pixels\nHeight                                   : 384 pixels\nDisplay aspect ratio                     : 1.875\nFrame rate                               : 23.976 fps\nColor space                              : YUV\nChroma subsampling                       : 4:2:0\nBit depth                                : 8 bits\nScan type                                : Progressive\nCompression mode                         : Lossy\nBits/(Pixel*Frame)                       : 0.256\nStream size                              : 1.06 GiB (79%)\nWriting library                          : XviD 64\n\nAudio\nID                                       : 1\nFormat                                   : AC-3\nFormat/Info                              : Audio Coding 3\nMode extension                           : CM (complete main)\nCodec ID                                 : 2000\nDuration                                 : 1h 29mn\nBit rate mode                            : Constant\nBit rate                                 : 448 Kbps\nChannel(s)                               : 6 channels\nChannel positions                        : Front: L C R, Side: L R, LFE\nSampling rate                            : 48.0 KHz\nBit depth                                : 16 bits\nCompression mode                         : Lossy\nStream size                              : 288 MiB (21%)\nAlignment                                : Split accross interleaves\nInterleave, duration                     : 42 ms (1.00 video frame)\nInterleave, preload duration             : 500 ms\n\n\nIMDB: http://www.imdb.com/title/tt1568929/","torrent":{"xt":"urn:btih:d40a5bafb386452188590d04a5ea690d44621adc","amp;dn":"The+Mooring+2012+DVDrip+Xvid+Ac3-MiLLENiUM","amp;tr":["udp%3A%2F%2Ftracker.openbittorrent.com%3A80","udp%3A%2F%2Fopen.demonii.com%3A1337","udp%3A%2F%2Ftracker.coppersurfer.tk%3A6969","udp%3A%2F%2Fexodus.desync.com%3A6969"],"infoHash":"d40a5bafb386452188590d04a5ea690d44621adc","infoHashBuffer":{"type":"Buffer","data":[212,10,91,175,179,134,69,33,136,89,13,4,165,234,105,13,68,98,26,220]},"announce":[],"urlList":[]}}